<svg xmlns:xlink="http://www.w3.org/1999/xlink" xmlns="http://www.w3.org/2000/svg" class="css-ze2te4 css-qd6ojx" viewBox="0 0 90 89.99660654647434" width="110"  height="110" ><g transform="translate(-9.429818521969674, -9.429818521969674) scale(1.700905317455883)" class="css-1mun45u" fill="#111111"><metadata xmlns="http://www.w3.org/2000/svg" fill="#111111"><sfw xmlns="http://ns.adobe.com/SaveForWeb/1.0/" fill="#111111"><slices fill="#111111"><slicesourcebounds height="16384" width="16389" x="-8165" y="-8160" bottomleftorigin="true" fill="#111111"></slicesourcebounds></slices></sfw></metadata><g xmlns="http://www.w3.org/2000/svg" fill="#111111"><path d="M58.163,22.808l-4.243-4.243c-0.375-0.375-1.039-0.375-1.414,0c-0.944,0.944-2.2,1.464-3.535,1.464   c-1.336,0-2.592-0.52-3.536-1.464c-1.949-1.949-1.949-5.122,0-7.071c0.391-0.391,0.391-1.023,0-1.414l-4.242-4.243   c-0.188-0.188-0.441-0.293-0.707-0.293s-0.52,0.105-0.707,0.293l-7.071,7.071c-0.188,0.188-0.293,0.442-0.293,0.707v1.829h-1.828   c-0.265,0-0.52,0.105-0.707,0.293L5.837,39.778c-0.188,0.188-0.293,0.441-0.293,0.707s0.105,0.52,0.293,0.707l4.243,4.242   c0.391,0.391,1.023,0.391,1.414,0c0.944-0.944,2.2-1.464,3.536-1.464c1.336,0,2.591,0.52,3.536,1.464s1.464,2.2,1.464,3.536   c0,1.335-0.52,2.591-1.464,3.535c-0.188,0.188-0.293,0.441-0.293,0.707s0.105,0.52,0.293,0.707l4.243,4.243   c0.188,0.188,0.442,0.293,0.707,0.293s0.52-0.105,0.707-0.293l24.042-24.042c0.188-0.188,0.293-0.441,0.293-0.707v-1.828h1.828   c0.266,0,0.52-0.105,0.707-0.293l7.071-7.071c0.188-0.188,0.293-0.442,0.293-0.707S58.351,22.995,58.163,22.808z M20.687,38.657   c-0.256,0-0.512-0.098-0.707-0.293c-0.391-0.391-0.391-1.023,0-1.414l9.899-9.9c0.391-0.391,1.023-0.391,1.414,0   s0.391,1.023,0,1.414l-9.899,9.9C21.198,38.56,20.942,38.657,20.687,38.657z M31.293,39.778l-4.243,4.242   c-0.195,0.195-0.451,0.293-0.707,0.293s-0.512-0.098-0.707-0.293c-0.391-0.391-0.391-1.023,0-1.414l4.243-4.242   c0.391-0.391,1.023-0.391,1.414,0S31.684,39.388,31.293,39.778z M34.121,31.293l-9.899,9.899c-0.195,0.195-0.451,0.293-0.707,0.293   s-0.512-0.098-0.707-0.293c-0.391-0.391-0.391-1.023,0-1.414l9.899-9.899c0.391-0.391,1.023-0.391,1.414,0   S34.512,30.902,34.121,31.293z M39.778,22.808c-0.195,0.195-0.451,0.293-0.707,0.293s-0.512-0.098-0.707-0.293l-2.829-2.829   c-0.391-0.39-0.391-1.023,0-1.414s1.023-0.391,1.414,0l2.829,2.829C40.169,21.784,40.169,22.417,39.778,22.808z M45.324,28.575   c-0.193,0.181-0.438,0.271-0.685,0.271c-0.267,0-0.532-0.106-0.729-0.315l-2.74-2.917c-0.379-0.402-0.358-1.035,0.044-1.414   c0.404-0.377,1.036-0.358,1.413,0.044l2.74,2.917C45.747,27.563,45.727,28.196,45.324,28.575z" fill="#111111"></path></g></g></svg>