<svg xmlns="http://www.w3.org/2000/svg" xmlns:xlink="http://www.w3.org/1999/xlink" id="ffegbdha" width="426.587" height="58.696" class="css-116ckqy" preserveAspectRatio="xMidYMid meet" viewBox="0 0 426.587 58.696"><g id="SvgjsG2403" fill="#FFF" featurekey="nameLeftFeature-0"><path fill="#FFF" d="M9.74 6 l3.2 0 l0 14 l-3.2 0 l0 -6.26 l-2.04 4.92 l-1.02 0 l-2.04 -4.92 l0 6.26 l-3.2 0 l0 -14 l3.2 0 l2.54 6.14 z M22.9 6 l3.9 14 l-3.2 0 l-0.56 -2.02 l-3.46 0 l-0.56 2.02 l-3.2 0 l3.9 -14 l3.18 0 z M20.48 14.719999999999999 l1.66 0 l-0.84 -2.98 z M39.42 6 l-3.3 4.98 l3.6 9.02 l-3.4 0 l-2.32 -5.8 l-1.18 1.78 l0 4.02 l-3.2 0 l0 -14 l3.2 0 l0 4.82 l3.2 -4.82 l3.4 0 z M51.400000000000006 9.22 l-5.6 0 l0 2.18 l4.02 0 l0 3.2 l-4.02 0 l0 2.2 l5.6 0 l0 3.2 l-8.8 0 l0 -14 l8.8 0 l0 3.22 z M66.54 6 l3.2 0 l0 14 l-3.2 0 l0 -6.26 l-2.04 4.92 l-1.02 0 l-2.04 -4.92 l0 6.26 l-3.2 0 l0 -14 l3.2 0 l2.54 6.14 z M78.12 11.1 l2.3 -5.1 l3.2 0 l-3.9 8.66 l0 5.34 l-3.2 0 l0 -5.34 l-3.9 -8.66 l3.22 0 z" transform="matrix(2.329192521125405,0,0,2.329192521125405,-3.3540368083752767,-0.9751540161068863)"/></g><g id="SvgjsG2404" fill="#FFF" featurekey="inlineSymbolFeature-0"><path xmlns="http://www.w3.org/2000/svg" fill="#FFF" d="M40.874,10.126C18.853,10.126,1,27.978,1,50c0,22.021,17.853,39.874,39.874,39.874c22.022,0,39.874-17.853,39.874-39.874 C80.748,27.978,62.896,10.126,40.874,10.126z M55.486,24.853c2.908-2.908,7.626-2.909,10.535,0s2.908,7.627,0,10.535 c-2.91,2.91-7.627,2.91-10.535,0C52.576,32.479,52.576,27.763,55.486,24.853z M5.313,50.001c-0.001-4.115,3.334-7.451,7.447-7.45 c4.116-0.001,7.452,3.335,7.449,7.449c0.002,4.114-3.334,7.449-7.449,7.449C8.647,57.45,5.312,54.114,5.313,50.001z M26.262,75.147 c-2.908,2.908-7.625,2.908-10.532-0.001c-2.911-2.909-2.911-7.626-0.003-10.534c2.91-2.91,7.628-2.91,10.535,0 C29.172,67.521,29.172,72.237,26.262,75.147z M26.262,35.388c-2.908,2.91-7.625,2.91-10.535,0 c-2.909-2.908-2.909-7.625,0.001-10.533c2.909-2.91,7.626-2.91,10.534-0.002C29.172,27.763,29.172,32.479,26.262,35.388z M40.875,85.562c-4.116,0.001-7.451-3.334-7.451-7.447c0-4.115,3.335-7.451,7.449-7.449c4.114-0.002,7.45,3.334,7.449,7.449 C48.324,82.228,44.988,85.562,40.875,85.562z M40.874,29.336c-4.114,0-7.45-3.335-7.45-7.45s3.335-7.45,7.45-7.45 s7.45,3.335,7.45,7.45S44.988,29.336,40.874,29.336z M66.021,75.146c-2.91,2.91-7.627,2.91-10.535,0.002 c-2.91-2.91-2.91-7.627,0-10.535c2.908-2.91,7.625-2.91,10.535,0C68.93,67.521,68.93,72.237,66.021,75.146z M68.988,57.449 c-4.115,0-7.451-3.335-7.449-7.449c-0.001-4.114,3.334-7.449,7.449-7.45c4.113,0,7.449,3.336,7.449,7.449 C76.438,54.114,73.102,57.449,68.988,57.449z" transform="matrix(0.7360141786677884,0,0,0.7360141786677884,210.2639858213322,-7.45287987080318)"/><path xmlns="http://www.w3.org/2000/svg" fill="#FFF" d="M98.25,88.312c0-0.863-0.699-1.562-1.562-1.562H63.102c-0.863,0-1.562,0.699-1.562,1.562l0,0 c0,0.862,0.699,1.562,1.562,1.562h33.586C97.551,89.874,98.25,89.175,98.25,88.312L98.25,88.312z" transform="matrix(0.7360141786677884,0,0,0.7360141786677884,210.2639858213322,-7.45287987080318)"/></g><g id="SvgjsG2405" fill="#FFF" featurekey="nameRightFeature-0"><path fill="#FFF" d="M11.719999999999999 11.4 c1.38 0 2.5 1.12 2.5 2.5 l0 3.62 c0 1.38 -1.12 2.48 -2.5 2.48 l-6.32 0 l0 -3.2 l5.6 0 l0 -2.18 l-3.12 0 c-1.38 0 -2.48 -1.12 -2.48 -2.5 l0 -3.62 c0 -1.38 1.12 -2.5 2.48 -2.5 l6.34 0 l0 3.22 l-5.62 0 l0 2.18 l3.12 0 z M23.8 11.4 l0 -5.4 l3.2 0 l0 14 l-3.2 0 l0 -5.4 l-3.5 0 l0 5.4 l-3.2 0 l0 -14 l3.2 0 l0 5.4 l3.5 0 z M37.3 6 c1.36 0 2.52 1.12 2.52 2.5 l-0.04 9.02 c0 1.38 -1.12 2.48 -2.5 2.48 l-4.92 0 c-1.36 0 -2.48 -1.1 -2.48 -2.48 l0 -9.02 c0 -1.38 1.12 -2.5 2.48 -2.5 l4.94 0 z M36.58 16.8 l0 -7.58 l-3.5 0 l0 7.58 l3.5 0 z M53.92 12.86 l1.34 -6.86 l3.2 0 l-2.72 14 l-3.2 0 l-1.98 -7.7 l-1.96 7.7 l-3.22 0 l-2.72 -14 l3.22 0 l1.32 6.86 l1.76 -6.86 l3.22 0 z" transform="matrix(2.329192679789043,0,0,2.329192679789043,290.42235930701,-0.9751538574430221)"/></g></svg>